<?xml version="1.0" standalone="no"?>
<!DOCTYPE svg PUBLIC "-//W3C//DTD SVG 20010904//EN"
 "http://www.w3.org/TR/2001/REC-SVG-20010904/DTD/svg10.dtd">
<svg version="1.0" xmlns="http://www.w3.org/2000/svg"
 width="600.000000pt" height="489.000000pt" viewBox="0 0 600.000000 489.000000"
 preserveAspectRatio="xMidYMid meet">

<g transform="translate(0.000000,489.000000) scale(0.100000,-0.100000)"
fill="#000000" stroke="none">
<path d="M5182 4804 c35 -42 106 -129 158 -194 52 -64 113 -138 135 -164 22
-26 50 -59 62 -74 12 -15 51 -63 88 -106 36 -43 72 -88 80 -99 8 -12 17 -18
21 -15 23 24 162 422 209 603 13 50 27 98 30 108 7 16 -17 17 -420 17 l-426 0
63 -76z"/>
<path d="M4113 4176 c-93 -30 -162 -75 -217 -140 -91 -108 -126 -204 -126
-348 0 -103 24 -182 79 -266 162 -244 504 -297 729 -115 73 59 101 95 143 178
34 69 40 92 45 170 11 155 -22 261 -115 373 -125 150 -344 210 -538 148z"/>
<path d="M1153 3425 c-143 -26 -198 -50 -543 -242 -118 -66 -291 -162 -383
-212 -175 -97 -200 -119 -178 -159 11 -21 67 -36 236 -66 485 -86 577 -121
787 -302 47 -40 90 -74 95 -74 4 1 23 25 41 53 18 29 59 74 90 99 31 25 69 57
83 69 14 13 66 60 115 104 49 44 94 85 100 90 6 6 47 42 90 80 43 39 108 97
144 130 153 140 233 210 241 213 33 13 -22 37 -256 115 -146 49 -300 95 -342
102 -96 18 -225 17 -320 0z"/>
<path d="M2703 2495 c-149 -58 -380 -205 -693 -441 -288 -217 -444 -348 -798
-669 -195 -176 -229 -237 -186 -327 21 -45 58 -70 110 -76 36 -4 57 1 109 27
36 18 70 38 77 44 13 13 135 107 184 142 15 11 88 67 161 125 73 58 154 121
181 140 26 19 49 38 52 41 3 3 59 52 125 108 421 361 748 707 793 839 14 42 1
72 -31 71 -12 0 -50 -11 -84 -24z"/>
<path d="M3289 1576 c-59 -45 -151 -115 -205 -156 -55 -41 -160 -122 -234
-180 -339 -264 -377 -291 -432 -309 -21 -7 -38 -17 -38 -23 0 -6 20 -43 44
-82 131 -212 166 -355 166 -676 l0 -150 158 0 157 1 179 214 c226 272 249 302
297 402 88 178 116 371 85 573 -9 58 -26 175 -37 260 -30 234 -15 221 -140
126z"/>
</g>
</svg>
