<?xml version="1.0" standalone="no"?>
<!DOCTYPE svg PUBLIC "-//W3C//DTD SVG 20010904//EN"
 "http://www.w3.org/TR/2001/REC-SVG-20010904/DTD/svg10.dtd">
<svg version="1.0" xmlns="http://www.w3.org/2000/svg"
 width="512.000000pt" height="512.000000pt" viewBox="0 0 512.000000 512.000000"
 preserveAspectRatio="xMidYMid meet">

<g transform="translate(0.000000,512.000000) scale(0.100000,-0.100000)"
fill="#000000" stroke="none">
<path d="M4570 5105 c-385 -50 -715 -185 -1025 -418 -44 -34 -262 -241 -485
-462 -542 -536 -479 -505 -1013 -505 l-338 0 -24 -25 c-32 -31 -33 -74 -2
-103 23 -22 28 -22 368 -22 l344 0 -554 -554 -554 -555 -64 59 c-77 70 -195
134 -299 160 -69 18 -112 20 -399 20 -293 0 -325 2 -344 18 -14 11 -23 29 -23
50 -1 31 23 58 318 354 185 186 344 337 378 359 105 69 161 81 405 87 192 4
215 6 232 23 27 27 24 75 -6 104 -24 25 -25 25 -222 25 -238 0 -301 -11 -433
-76 -95 -47 -96 -48 -442 -392 -386 -383 -396 -396 -385 -500 9 -88 62 -159
142 -190 20 -8 144 -12 375 -15 327 -3 348 -4 404 -25 104 -39 147 -71 309
-231 l157 -155 -195 -196 c-177 -178 -195 -199 -195 -230 0 -32 26 -60 338
-372 312 -312 340 -338 372 -338 31 0 52 18 230 195 l196 195 155 -157 c160
-162 193 -205 231 -309 20 -55 22 -81 27 -414 l6 -355 28 -47 c34 -59 96 -97
169 -105 104 -11 117 -1 500 385 344 346 345 347 392 442 76 156 76 147 76
895 0 735 0 729 67 859 33 63 85 119 438 476 474 478 544 564 675 830 146 294
213 572 214 890 1 161 -1 178 -21 215 -25 46 -54 75 -103 101 -45 24 -268 29
-420 9z m373 -163 c21 -21 22 -31 21 -150 -2 -121 -23 -313 -45 -396 l-11 -39
-274 274 c-150 150 -270 276 -266 280 25 23 326 59 465 55 76 -2 91 -5 110
-24z m-419 -421 l338 -338 -20 -54 c-74 -199 -218 -438 -358 -593 l-26 -29
-86 86 c-103 102 -128 112 -172 69 -16 -17 -30 -40 -30 -53 0 -14 32 -54 92
-116 l92 -94 -264 -264 -265 -265 -477 477 -478 478 265 265 265 265 303 -303
c259 -258 306 -302 331 -302 40 0 76 35 76 74 0 26 -39 69 -302 333 -262 263
-300 304 -286 315 8 7 46 38 84 69 85 69 194 143 296 198 74 41 252 119 273
120 6 1 162 -151 349 -338z m-1284 -1286 l475 -475 -473 -472 -472 -473 -477
477 -478 478 470 470 c258 258 472 470 475 470 3 0 219 -214 480 -475z m-1050
-1050 l475 -475 -158 -157 -157 -158 -477 477 -478 478 155 155 c85 85 157
155 160 155 3 0 219 -214 480 -475z m1364 -948 c-20 -38 -677 -702 -716 -723
-28 -15 -77 -18 -115 -8 -23 6 -23 9 -23 174 0 133 -4 182 -20 244 -26 104
-90 223 -160 298 l-59 63 552 553 552 552 3 -560 c2 -501 0 -564 -14 -593z
m-1789 523 l260 -260 -53 -52 -52 -53 -262 262 -263 263 50 50 c27 27 52 50
55 50 3 0 122 -117 265 -260z m-5 -525 l-50 -50 -262 262 -263 263 50 50 50
50 262 -262 263 -263 -50 -50z"/>
<path d="M3327 4036 c-94 -35 -150 -115 -150 -215 0 -37 7 -69 21 -96 26 -50
484 -506 532 -531 91 -45 218 -9 277 79 42 63 51 123 28 196 -16 52 -33 72
-259 297 -132 133 -256 249 -275 259 -46 23 -128 28 -174 11z m270 -309 l164
-163 -23 -34 c-13 -19 -36 -41 -51 -50 l-27 -15 -165 165 c-174 174 -184 189
-149 238 11 16 25 22 51 22 34 0 49 -12 200 -163z"/>
<path d="M1667 2408 c-44 -34 -37 -98 14 -127 55 -31 123 31 100 92 -17 43
-77 62 -114 35z"/>
<path d="M1872 2187 c-67 -72 34 -172 103 -102 14 13 25 36 25 50 0 35 -42 75
-78 75 -17 0 -37 -9 -50 -23z"/>
<path d="M2085 1975 c-32 -31 -33 -74 -2 -103 72 -67 172 34 102 103 -13 14
-36 25 -50 25 -14 0 -37 -11 -50 -25z"/>
<path d="M2313 1778 c-54 -26 -50 -114 6 -138 53 -21 101 15 101 78 0 49 -60
83 -107 60z"/>
<path d="M542 1420 c-213 -56 -378 -194 -473 -395 -61 -130 -69 -192 -69 -532
0 -187 4 -313 11 -338 16 -55 91 -129 148 -145 31 -8 140 -10 370 -8 363 4
385 8 532 84 348 182 482 623 297 978 -89 169 -267 308 -454 356 -102 26 -261
26 -362 0z m324 -150 c199 -51 360 -217 409 -421 30 -128 15 -249 -47 -378
-69 -144 -198 -251 -358 -297 -42 -13 -121 -17 -339 -21 -332 -6 -354 -3 -372
56 -18 59 -6 589 15 661 46 160 153 289 297 359 133 64 255 77 395 41z"/>
<path d="M625 1136 c-125 -31 -228 -114 -285 -230 -30 -60 -35 -81 -38 -160
-3 -74 0 -103 18 -156 45 -133 137 -225 271 -270 52 -18 81 -21 155 -18 79 3
100 8 160 38 259 127 322 465 125 673 -107 113 -260 159 -406 123z m187 -158
c22 -6 60 -30 85 -52 145 -127 118 -360 -51 -444 -169 -85 -374 26 -393 213
-20 195 165 341 359 283z"/>
</g>
</svg>
